<svg width="744" height="282" viewBox="0 0 744 282" fill="none" xmlns="http://www.w3.org/2000/svg">
<g clip-path="url(#clip0_680_1765)">
<path d="M671.336 136.511V126.571H675.72C676.589 126.571 677.27 126.647 677.723 126.836C678.177 127.025 678.555 127.327 678.819 127.78C679.084 128.234 679.235 128.725 679.235 129.292C679.235 130.01 679.008 130.577 678.555 131.068C678.101 131.56 677.383 131.862 676.438 131.976C676.778 132.127 677.043 132.316 677.232 132.467C677.61 132.807 677.988 133.261 678.328 133.79L680.066 136.473H678.441L677.118 134.394C676.74 133.79 676.4 133.336 676.174 133.034C675.909 132.731 675.682 132.505 675.493 132.353L674.889 132.089C674.737 132.051 674.511 132.051 674.17 132.051H672.659V136.473H671.336V136.511ZM672.659 130.955H675.493C676.098 130.955 676.551 130.88 676.892 130.766C677.232 130.653 677.496 130.426 677.647 130.161C677.836 129.897 677.912 129.595 677.912 129.254C677.912 128.801 677.723 128.385 677.383 128.083C677.043 127.78 676.514 127.629 675.758 127.629H672.621V130.917L672.659 130.955Z" fill="#2B2A29"/>
<path d="M675.115 122.792C677.534 122.792 679.726 123.774 681.313 125.362C682.901 126.949 683.883 129.141 683.883 131.56C683.883 133.979 682.901 136.171 681.313 137.758C679.726 139.345 677.534 140.328 675.115 140.328C672.697 140.328 670.504 139.345 668.917 137.758C667.33 136.171 666.347 133.979 666.347 131.56C666.347 129.141 667.33 126.949 668.917 125.362C670.504 123.774 672.697 122.792 675.115 122.792ZM680.482 126.155C679.121 124.795 677.194 123.926 675.115 123.926C673.037 123.926 671.109 124.795 669.749 126.155C668.388 127.516 667.519 129.443 667.519 131.522C667.519 133.601 668.35 135.528 669.749 136.889C671.109 138.249 673.037 139.119 675.115 139.119C677.232 139.119 679.121 138.249 680.482 136.889C681.843 135.528 682.712 133.601 682.712 131.522C682.712 129.443 681.843 127.516 680.482 126.155Z" fill="#2B2A29"/>
<path d="M177.524 245.47H156.435C136.064 245.47 119.095 238.516 105.603 224.608C92.1103 210.7 85.3452 193.239 85.3452 172.301C85.3452 153.178 92.1481 136.435 105.792 122.111C120.569 106.503 139.239 98.717 161.877 98.717H177.486V117.047H163.994C147.138 117.047 133.192 122.263 122.232 132.656C111.272 143.049 105.792 156.277 105.792 172.301C105.792 189.724 111.498 203.594 122.874 213.837C132.701 222.68 143.888 227.14 156.397 227.14H177.486V245.47H177.524ZM283.838 195.28C283.838 210.473 278.698 222.983 268.456 232.809C258.176 242.635 245.893 247.586 231.569 247.586C217.359 247.586 205.151 242.673 194.871 232.809C184.591 222.983 179.489 210.473 179.489 195.28C179.489 180.238 184.591 167.766 194.796 157.864C205 147.962 217.245 143.011 231.607 143.011C245.817 143.011 258.062 147.962 268.418 157.864C278.735 167.766 283.913 180.238 283.913 195.28H283.838ZM264.449 195.28C264.449 185 261.35 176.648 255.19 170.185C248.992 163.722 241.131 160.472 231.569 160.472C221.856 160.472 213.957 163.684 207.835 170.072C201.712 176.459 198.651 184.887 198.651 195.28C198.651 205.56 201.75 213.912 207.948 220.375C214.146 226.838 222.007 230.088 231.569 230.088C241.131 230.088 248.992 226.838 255.19 220.375C261.388 213.912 264.449 205.56 264.449 195.28ZM375.827 245.47H357.497V186.852C357.497 179.255 355.154 172.982 350.392 167.993C345.668 163.004 339.848 160.51 332.932 160.51C326.28 160.51 320.535 163.004 315.66 167.993C310.784 172.982 308.366 179.255 308.366 186.852V245.47H290.036V186.852C290.036 173.926 294.042 163.382 302.054 155.219C310.066 147.055 320.346 142.973 332.856 142.973C345.215 142.973 355.494 147.055 363.658 155.219C371.821 163.382 375.903 173.926 375.903 186.852V245.47H375.827ZM464.416 217.427C464.416 226.573 461.543 233.527 455.761 238.289C449.979 243.051 442.458 245.47 433.198 245.47H381.761V227.971H433.198C441.21 227.971 445.217 224.721 445.217 218.258C445.217 213.61 439.737 209.528 428.776 206.013C411.769 200.684 401.641 197.17 398.428 195.469C387.317 189.838 381.761 182.128 381.761 172.264C381.761 163.42 384.709 156.655 390.605 152.006C396.501 147.358 405.004 145.052 416.115 145.052H459.351V162.551H412.941C408.443 162.551 405.306 163.231 403.568 164.554C401.792 165.876 400.922 168.182 400.922 171.394C400.922 175.892 406.403 179.747 417.363 182.997C433.803 187.91 443.932 191.349 447.711 193.315C458.822 199.059 464.378 207.109 464.378 217.351L464.416 217.427ZM526.019 245.47H501.34C491.93 245.47 484.598 242.598 479.42 236.815C474.204 231.033 471.634 223.058 471.634 212.93V119.352H489.964V145.09H526.019V162.588H489.964V215.311C489.964 219.959 491.06 223.209 493.215 225.137C495.407 227.027 498.884 227.971 503.646 227.971H525.982V245.47H526.019ZM583.919 160.472H581.16C572.014 160.472 565.023 163.533 560.185 169.656C555.347 175.778 552.929 185.454 552.929 198.644V245.47H534.599V145.09H552.097V156.466C555.347 151.704 559.202 148.227 563.7 146.148C568.197 144.032 573.526 142.973 579.724 142.973H583.957V160.472H583.919ZM684.299 195.28C684.299 210.473 679.159 222.983 668.917 232.809C658.675 242.635 646.355 247.586 632.031 247.586C617.82 247.586 605.613 242.673 595.333 232.809C585.053 222.983 579.951 210.473 579.951 195.28C579.951 180.238 585.053 167.766 595.258 157.864C605.462 147.962 617.707 143.011 632.069 143.011C646.279 143.011 658.524 147.962 668.88 157.864C679.197 167.766 684.375 180.238 684.375 195.28H684.299ZM664.911 195.28C664.911 185 661.812 176.648 655.614 170.185C649.416 163.722 641.555 160.472 631.993 160.472C622.28 160.472 614.381 163.684 608.259 170.072C602.136 176.459 599.075 184.887 599.075 195.28C599.075 205.56 602.174 213.912 608.372 220.375C614.57 226.838 622.431 230.088 631.993 230.088C641.555 230.088 649.416 226.838 655.614 220.375C661.812 213.912 664.911 205.56 664.911 195.28Z" fill="#2F4B98"/>
<path fill-rule="evenodd" clip-rule="evenodd" d="M183.08 254.805C139.201 275.894 84.8916 270.754 45.3594 237.155C-8.64779 191.538 -15.2617 110.925 30.0907 56.9552C48.723 35.1482 73.0621 20.9378 98.9886 15.042C83.1153 22.6007 68.7537 33.4475 56.7353 47.6957C11.1183 101.741 17.7322 182.317 71.7394 227.934C103.713 254.994 145.286 263.649 183.08 254.843V254.805Z" fill="#E22227"/>
<path fill-rule="evenodd" clip-rule="evenodd" d="M132.096 251.668C84.7026 239.65 46.5688 200.798 37.8762 149.398C25.9712 79.7069 72.6842 13.6814 142.376 1.77636C170.494 -2.98564 198.424 1.85195 221.931 13.9081C205.151 9.56186 186.897 8.46584 168.567 11.6405C98.8752 23.5455 52.2 89.7978 64.0672 159.263C71.1725 200.571 97.4013 234.094 132.096 251.63V251.668Z" fill="#EF7F1A"/>
<path fill-rule="evenodd" clip-rule="evenodd" d="M72.4575 171.016C60.099 126.76 73.8181 77.3258 111.272 46.2216C162.52 3.85491 238.258 10.8467 280.625 62.095C297.972 82.6925 307.005 107.636 308.214 132.542C303.906 116.631 296.196 101.287 285.009 88.0214C242.416 36.811 166.677 29.8192 115.656 72.1481C85.2696 97.3565 70.3411 134.432 72.4197 171.016H72.4575Z" fill="#FECC00"/>
<path d="M331.679 42.3775V79H324.526V42.3775H331.679ZM338.732 79V52.8555H345.633V79H338.732ZM353.844 79V63.1571C353.844 61.8642 353.475 60.8735 352.736 60.185C352.014 59.4797 350.981 59.1271 349.638 59.1271C348.362 59.1271 347.371 59.4881 346.666 60.2102C345.978 60.9154 345.633 61.9145 345.633 63.2075L345.104 57.4144C345.86 55.836 346.775 54.6186 347.85 53.7622C348.941 52.9058 350.352 52.4776 352.081 52.4776C354.835 52.4776 356.968 53.4096 358.479 55.2735C359.99 57.1205 360.746 59.74 360.746 63.1319V79H353.844ZM374.851 79.1259C372.517 79.1259 370.829 78.5298 369.788 77.3376C368.747 76.1454 368.226 74.4327 368.226 72.1994V45.2489H375.128V70.4867C375.128 71.1079 375.254 71.5949 375.506 71.9475C375.757 72.3001 376.127 72.4765 376.614 72.4765H378.327V79.1259H374.851ZM365.531 58.7493V52.8555H378.327V58.7493H365.531ZM395.58 79.3778C391.785 79.3778 388.838 78.3619 386.739 76.3301C384.657 74.2816 383.616 71.3934 383.616 67.6657V64.7187C383.616 60.8231 384.615 57.809 386.613 55.6764C388.628 53.5439 391.466 52.4776 395.127 52.4776C398.586 52.4776 401.256 53.7538 403.136 56.3061C405.034 58.8417 405.982 62.4183 405.982 67.036V68.7487H388.099V64.089H399.686L399.61 63.4845C399.425 61.9901 398.955 60.8315 398.199 60.0087C397.444 59.1691 396.42 58.7493 395.127 58.7493C393.464 58.7493 392.171 59.2447 391.248 60.2354C390.341 61.2261 389.888 62.6282 389.888 64.4417V67.7664C389.888 69.5463 390.383 70.9232 391.374 71.8971C392.381 72.8711 393.783 73.358 395.58 73.358C396.503 73.358 397.419 73.1985 398.325 72.8795C399.232 72.5436 400.055 72.0735 400.794 71.469L405.302 75.4738C403.942 76.7163 402.414 77.6819 400.718 78.3703C399.022 79.042 397.309 79.3778 395.58 79.3778ZM412.027 79V52.8555H419.432V79H412.027ZM426.737 60.1346C426.418 59.7988 426.006 59.5469 425.503 59.379C425.016 59.2111 424.453 59.1271 423.815 59.1271C422.421 59.1271 421.338 59.5805 420.566 60.4872C419.81 61.3772 419.432 62.6198 419.432 64.215L418.904 57.4144C419.626 55.8696 420.557 54.6606 421.699 53.7874C422.858 52.9142 424.126 52.4776 425.503 52.4776C426.594 52.4776 427.576 52.654 428.45 53.0066C429.339 53.3424 430.112 53.8462 430.767 54.5178L426.737 60.1346ZM434.041 79V52.8555H440.942V79H434.041ZM449.154 79V63.1571C449.154 61.8642 448.784 60.8735 448.045 60.185C447.323 59.4797 446.291 59.1271 444.947 59.1271C443.671 59.1271 442.68 59.4881 441.975 60.2102C441.287 60.9154 440.942 61.9145 440.942 63.2075L440.414 57.4144C441.169 55.836 442.084 54.6186 443.159 53.7622C444.25 52.9058 445.661 52.4776 447.39 52.4776C450.144 52.4776 452.277 53.4096 453.788 55.2735C455.299 57.1205 456.055 59.74 456.055 63.1319V79H449.154ZM477.238 79V62.4267C477.238 61.2177 476.835 60.2857 476.029 59.6309C475.223 58.976 474.081 58.6486 472.603 58.6486C471.629 58.6486 470.664 58.8081 469.707 59.1271C468.749 59.4294 467.901 59.8744 467.163 60.4621L462.881 56.2558C463.922 55.0636 465.299 54.14 467.011 53.4851C468.724 52.8135 470.622 52.4776 472.704 52.4776C476.146 52.4776 478.808 53.3256 480.688 55.0216C482.569 56.7175 483.509 59.1103 483.509 62.2V79H477.238ZM469.958 79.3778C467.171 79.3778 465.08 78.7145 463.687 77.388C462.293 76.0615 461.596 74.0297 461.596 71.2926C461.596 68.6899 462.369 66.7505 463.913 65.4744C465.475 64.1814 467.809 63.5349 470.916 63.5349H477.464L477.817 68.7991H470.941C469.9 68.7991 469.119 69.009 468.598 69.4288C468.078 69.8318 467.817 70.4531 467.817 71.2926C467.817 72.149 468.145 72.7871 468.8 73.2069C469.471 73.6099 470.462 73.8114 471.772 73.8114C473.602 73.8114 474.971 73.6015 475.877 73.1817C476.784 72.7619 477.238 72.107 477.238 71.2171L477.767 75.0204C477.666 76.0111 477.221 76.8339 476.432 77.4888C475.642 78.1268 474.668 78.6054 473.51 78.9244C472.368 79.2267 471.184 79.3778 469.958 79.3778ZM497.614 79.1259C495.28 79.1259 493.593 78.5298 492.552 77.3376C491.51 76.1454 490.99 74.4327 490.99 72.1994V45.2489H497.891V70.4867C497.891 71.1079 498.017 71.5949 498.269 71.9475C498.521 72.3001 498.89 72.4765 499.377 72.4765H501.09V79.1259H497.614ZM488.295 58.7493V52.8555H501.09V58.7493H488.295ZM506.757 49.2788V42.3775H513.659V49.2788H506.757ZM506.757 79V52.8555H513.659V79H506.757ZM530.61 79.3778C527.016 79.3778 524.237 78.3871 522.273 76.4057C520.308 74.4075 519.326 71.6033 519.326 67.9931V63.7364C519.326 60.1598 520.308 57.3892 522.273 55.4246C524.237 53.46 527.016 52.4776 530.61 52.4776C534.203 52.4776 536.982 53.46 538.947 55.4246C540.911 57.3892 541.894 60.1598 541.894 63.7364V68.0687C541.894 71.6621 540.911 74.4495 538.947 76.4309C536.982 78.3955 534.203 79.3778 530.61 79.3778ZM530.585 72.7283C531.978 72.7283 533.061 72.3253 533.834 71.5193C534.606 70.6965 534.992 69.5463 534.992 68.0687V63.7364C534.992 62.2756 534.606 61.1421 533.834 60.3361C533.061 59.5301 531.978 59.1271 530.585 59.1271C529.208 59.1271 528.133 59.5301 527.361 60.3361C526.605 61.1421 526.227 62.2756 526.227 63.7364V68.0687C526.227 69.5463 526.605 70.6965 527.361 71.5193C528.133 72.3253 529.208 72.7283 530.585 72.7283ZM548.191 79V52.8555H555.092V79H548.191ZM563.303 79V63.1571C563.303 61.8642 562.934 60.8735 562.195 60.185C561.473 59.4797 560.44 59.1271 559.097 59.1271C557.821 59.1271 556.83 59.4881 556.125 60.2102C555.436 60.9154 555.092 61.9145 555.092 63.2075L554.563 57.4144C555.319 55.836 556.234 54.6186 557.308 53.7622C558.4 52.9058 559.81 52.4776 561.54 52.4776C564.294 52.4776 566.426 53.4096 567.937 55.2735C569.449 57.1205 570.204 59.74 570.204 63.1319V79H563.303ZM591.387 79V62.4267C591.387 61.2177 590.984 60.2857 590.178 59.6309C589.372 58.976 588.23 58.6486 586.752 58.6486C585.779 58.6486 584.813 58.8081 583.856 59.1271C582.899 59.4294 582.051 59.8744 581.312 60.4621L577.03 56.2558C578.071 55.0636 579.448 54.14 581.161 53.4851C582.874 52.8135 584.771 52.4776 586.853 52.4776C590.295 52.4776 592.957 53.3256 594.838 55.0216C596.718 56.7175 597.659 59.1103 597.659 62.2V79H591.387ZM584.108 79.3778C581.32 79.3778 579.23 78.7145 577.836 77.388C576.442 76.0615 575.746 74.0297 575.746 71.2926C575.746 68.6899 576.518 66.7505 578.063 65.4744C579.624 64.1814 581.958 63.5349 585.065 63.5349H591.614L591.966 68.7991H585.09C584.049 68.7991 583.268 69.009 582.748 69.4288C582.227 69.8318 581.967 70.4531 581.967 71.2926C581.967 72.149 582.294 72.7871 582.949 73.2069C583.621 73.6099 584.612 73.8114 585.921 73.8114C587.752 73.8114 589.12 73.6015 590.027 73.1817C590.934 72.7619 591.387 72.107 591.387 71.2171L591.916 75.0204C591.815 76.0111 591.37 76.8339 590.581 77.4888C589.792 78.1268 588.818 78.6054 587.659 78.9244C586.517 79.2267 585.334 79.3778 584.108 79.3778ZM611.361 42.3775V70.3607C611.361 70.982 611.537 71.469 611.89 71.8216C612.259 72.1742 612.779 72.3505 613.451 72.3505H614.61V79H611.084C608.985 79 607.356 78.3955 606.197 77.1865C605.039 75.9775 604.459 74.2732 604.459 72.0735V42.3775H611.361ZM633.777 79V42.3775H640.679V79H633.777ZM636.271 79V72.3505H658.31V79H636.271ZM636.271 64.1394V57.4899H655.539V64.1394H636.271ZM636.271 49.027V42.3775H658.31V49.027H636.271ZM678.535 79L672.087 68.1946L661.987 52.8555H669.594L675.866 63.409L686.117 79H678.535ZM661.584 79L670.828 64.5676L674.934 69.3028L668.914 79H661.584ZM677.326 66.9604L673.271 62.1244L678.107 52.8555H685.714L677.326 66.9604ZM690.802 89.6291V52.8555H697.703V89.6291H690.802ZM703.773 79.3778C702.245 79.3778 700.927 78.9916 699.819 78.2192C698.711 77.43 697.888 76.3217 697.35 74.8945L697.703 68.925C697.703 69.7814 697.854 70.5118 698.156 71.1163C698.459 71.7208 698.895 72.1826 699.466 72.5016C700.054 72.8207 700.759 72.9802 701.582 72.9802C702.875 72.9802 703.874 72.552 704.579 71.6956C705.301 70.8393 705.662 69.6303 705.662 68.0687V63.9127C705.662 62.3175 705.301 61.0833 704.579 60.2102C703.874 59.3202 702.875 58.8753 701.582 58.8753C700.759 58.8753 700.054 59.0432 699.466 59.379C698.895 59.698 698.459 60.1682 698.156 60.7895C697.854 61.4108 697.703 62.1664 697.703 63.0564L697.174 57.2633C697.879 55.7352 698.803 54.5598 699.945 53.737C701.103 52.8974 702.38 52.4776 703.773 52.4776C706.577 52.4776 708.744 53.4767 710.272 55.4749C711.8 57.4564 712.564 60.2606 712.564 63.8875V68.0687C712.564 71.6621 711.8 74.4495 710.272 76.4309C708.744 78.3955 706.577 79.3778 703.773 79.3778ZM729.389 79.3778C725.795 79.3778 723.016 78.3871 721.052 76.4057C719.087 74.4075 718.105 71.6033 718.105 67.9931V63.7364C718.105 60.1598 719.087 57.3892 721.052 55.4246C723.016 53.46 725.795 52.4776 729.389 52.4776C732.982 52.4776 735.761 53.46 737.726 55.4246C739.69 57.3892 740.673 60.1598 740.673 63.7364V68.0687C740.673 71.6621 739.69 74.4495 737.726 76.4309C735.761 78.3955 732.982 79.3778 729.389 79.3778ZM729.364 72.7283C730.757 72.7283 731.84 72.3253 732.613 71.5193C733.385 70.6965 733.771 69.5463 733.771 68.0687V63.7364C733.771 62.2756 733.385 61.1421 732.613 60.3361C731.84 59.5301 730.757 59.1271 729.364 59.1271C727.987 59.1271 726.912 59.5301 726.14 60.3361C725.384 61.1421 725.006 62.2756 725.006 63.7364V68.0687C725.006 69.5463 725.384 70.6965 726.14 71.5193C726.912 72.3253 727.987 72.7283 729.364 72.7283Z" fill="black"/>
</g>
<defs>
<clipPath id="clip0_680_1765">
<rect width="744" height="282" fill="white"/>
</clipPath>
</defs>
</svg>
